<svg width="268" height="20" viewBox="0 0 268 20" fill="none" xmlns="http://www.w3.org/2000/svg">
<path d="M9.26397 19.36C14.16 19.36 17.808 15.736 17.808 10.912C17.808 6.08801 14.16 2.46401 9.26397 2.46401C4.36797 2.46401 0.719971 6.08801 0.719971 10.912C0.719971 15.736 4.36797 19.36 9.26397 19.36ZM9.26397 15.16C7.00797 15.16 5.27997 13.312 5.27997 10.912C5.27997 8.51201 7.00797 6.66401 9.26397 6.66401C11.52 6.66401 13.248 8.51201 13.248 10.912C13.248 13.312 11.52 15.16 9.26397 15.16Z" fill="#A60150"/>
<path d="M20.219 1.48001V19H24.539V1.48001H20.219Z" fill="#A60150"/>
<path d="M33.4985 15.16C32.1065 15.16 31.5065 13.888 31.5065 12.376V7.00001H27.1865V12.904C27.1865 16.432 29.2505 19.36 33.4985 19.36C37.7465 19.36 39.8105 16.432 39.8105 12.904V7.00001H35.4905V12.376C35.4905 13.888 34.8905 15.16 33.4985 15.16Z" fill="#A60150"/>
<path d="M46.8532 19.384C48.3652 19.384 49.6372 18.424 50.1172 16.504L51.4612 11.176L52.8292 16.504C53.3092 18.424 54.5572 19.384 56.0692 19.384C57.5092 19.384 59.2132 18.472 59.6452 16.504L61.7572 7.00001H57.7732L56.1172 14.752L54.7492 9.44801C54.2692 7.55201 53.1652 6.61601 51.4852 6.61601C49.8052 6.61601 48.6772 7.57601 48.1732 9.49601L46.8052 14.776L45.0532 7.00001H41.0212L43.2772 16.504C43.7332 18.472 45.4132 19.384 46.8532 19.384Z" fill="#A60150"/>
<path d="M68.3578 19.36C69.7498 19.36 70.8298 18.904 71.5978 18.112V19H75.6778V12.976C75.6778 9.30401 72.9178 6.61601 69.0778 6.61601C65.3338 6.61601 62.4778 9.49601 62.4778 12.976C62.4778 16.48 64.8538 19.36 68.3578 19.36ZM69.0778 15.304C67.7098 15.304 66.7978 14.248 66.7978 13C66.7978 11.728 67.7098 10.672 69.0778 10.672C70.4458 10.672 71.3578 11.728 71.3578 13C71.3578 14.248 70.4458 15.304 69.0778 15.304Z" fill="#A60150"/>
<path d="M84.675 19.36C88.419 19.36 91.275 16.504 91.275 13.024C91.275 9.18401 88.731 6.64001 84.915 6.64001C84.027 6.64001 83.139 6.90401 82.395 7.31201V1.48001H78.075V13.024C78.075 16.696 80.835 19.36 84.675 19.36ZM84.675 15.304C83.307 15.304 82.395 14.272 82.395 13C82.395 11.752 83.307 10.696 84.675 10.696C86.043 10.696 86.955 11.752 86.955 13C86.955 14.272 86.043 15.304 84.675 15.304Z" fill="#A60150"/>
<path d="M99.2642 15.16C97.8722 15.16 97.2722 13.888 97.2722 12.376V7.00001H92.9522V12.904C92.9522 16.432 95.0162 19.36 99.2642 19.36C103.512 19.36 105.576 16.432 105.576 12.904V7.00001H101.256V12.376C101.256 13.888 100.656 15.16 99.2642 15.16Z" fill="#A60150"/>
<path d="M114.251 10.84C115.835 10.84 116.435 12.112 116.435 13.624V19H120.755V13.096C120.755 9.56801 118.691 6.64001 114.251 6.64001C109.811 6.64001 107.747 9.56801 107.747 13.096V19H112.067V13.624C112.067 12.112 112.667 10.84 114.251 10.84Z" fill="#A60150"/>
<path d="M138.481 6.52001C136.417 6.52001 134.689 7.40801 133.897 8.87201C133.153 7.40801 131.521 6.52001 129.265 6.52001C125.137 6.52001 123.145 9.40001 123.145 12.736V19H127.465V13.48C127.465 11.968 128.017 10.72 129.601 10.72C131.185 10.72 131.713 11.968 131.713 13.48V19H136.033V13.48C136.033 11.968 136.561 10.72 138.145 10.72C139.729 10.72 140.281 11.968 140.281 13.48V19H144.601V12.736C144.601 9.40001 142.609 6.52001 138.481 6.52001Z" fill="#A60150"/>
<path d="M149.645 5.72801C151.061 5.72801 152.237 4.55201 152.237 3.13601C152.237 1.72001 151.061 0.544006 149.645 0.544006C148.229 0.544006 147.053 1.72001 147.053 3.13601C147.053 4.55201 148.229 5.72801 149.645 5.72801ZM147.485 7.00001V19H151.805V7.00001H147.485Z" fill="#A60150"/>
<path d="M159.852 18.976V15.04H161.868C166.572 15.04 169.236 12.736 169.236 8.84801C169.236 5.08001 166.428 2.80001 161.628 2.80001H155.412V19L159.852 18.976ZM161.748 6.88001C163.668 6.88001 164.676 7.57601 164.676 8.84801C164.676 10.216 163.74 10.96 161.748 10.96H159.852V6.88001H161.748Z" fill="#A60150"/>
<path d="M177.148 19.36C180.892 19.36 183.748 16.48 183.748 12.976C183.748 9.49601 180.892 6.61601 177.148 6.61601C173.404 6.61601 170.548 9.49601 170.548 12.976C170.548 16.48 173.404 19.36 177.148 19.36ZM177.148 15.304C175.78 15.304 174.868 14.248 174.868 13C174.868 11.728 175.78 10.672 177.148 10.672C178.516 10.672 179.428 11.728 179.428 13C179.428 14.248 178.516 15.304 177.148 15.304Z" fill="#A60150"/>
<path d="M189.997 19V12.496C189.997 11.344 190.693 10.696 191.821 10.696C192.421 10.696 193.141 10.864 193.717 11.176V7.02401C193.117 6.76001 192.229 6.61601 191.413 6.61601C187.501 6.61601 185.677 9.16001 185.677 12.352V19H189.997Z" fill="#A60150"/>
<path d="M202.571 19.384C203.387 19.384 204.491 19.216 205.091 18.88V15.064C204.515 15.376 203.579 15.544 202.979 15.544C201.851 15.544 201.155 14.896 201.155 13.744V10.6H205.091V7.00001H201.155V4.00001H196.835V7.00001H194.795V10.6H196.835V13.888C196.835 17.08 198.659 19.384 202.571 19.384Z" fill="#A60150"/>
<path d="M212.645 19V10.6H216.101V7.00001H212.645V6.83201C212.645 5.68001 213.341 5.03201 214.469 5.03201C215.069 5.03201 215.789 5.20001 216.365 5.51201V1.60001C215.765 1.33601 214.877 1.19201 214.061 1.19201C210.149 1.19201 208.325 3.73601 208.325 6.92801V7.00001H206.285V10.6H208.325V19H212.645Z" fill="#A60150"/>
<path d="M223.695 19.36C227.439 19.36 230.295 16.48 230.295 12.976C230.295 9.49601 227.439 6.61601 223.695 6.61601C219.951 6.61601 217.095 9.49601 217.095 12.976C217.095 16.48 219.951 19.36 223.695 19.36ZM223.695 15.304C222.327 15.304 221.415 14.248 221.415 13C221.415 11.728 222.327 10.672 223.695 10.672C225.063 10.672 225.975 11.728 225.975 13C225.975 14.248 225.063 15.304 223.695 15.304Z" fill="#A60150"/>
<path d="M232.703 1.48001V19H237.023V1.48001H232.703Z" fill="#A60150"/>
<path d="M242.551 5.72801C243.967 5.72801 245.143 4.55201 245.143 3.13601C245.143 1.72001 243.967 0.544006 242.551 0.544006C241.135 0.544006 239.959 1.72001 239.959 3.13601C239.959 4.55201 241.135 5.72801 242.551 5.72801ZM240.391 7.00001V19H244.711V7.00001H240.391Z" fill="#A60150"/>
<path d="M253.718 19.36C257.462 19.36 260.318 16.48 260.318 12.976C260.318 9.49601 257.462 6.61601 253.718 6.61601C249.974 6.61601 247.118 9.49601 247.118 12.976C247.118 16.48 249.974 19.36 253.718 19.36ZM253.718 15.304C252.35 15.304 251.438 14.248 251.438 13C251.438 11.728 252.35 10.672 253.718 10.672C255.086 10.672 255.998 11.728 255.998 13C255.998 14.248 255.086 15.304 253.718 15.304Z" fill="#A60150"/>
<path d="M264.85 19.288C266.266 19.288 267.442 18.112 267.442 16.696C267.442 15.28 266.266 14.104 264.85 14.104C263.434 14.104 262.258 15.28 262.258 16.696C262.258 18.112 263.434 19.288 264.85 19.288Z" fill="#A60150"/>
</svg>
